<?xml version="1.0" encoding="UTF-8"?>
<svg width="58px" height="140px" viewBox="0 0 58 140" version="1.1" xmlns="http://www.w3.org/2000/svg" xmlns:xlink="http://www.w3.org/1999/xlink">
    <!-- Generator: Sketch 50 (54983) - http://www.bohemiancoding.com/sketch -->
    <title>icon/professional</title>
    <desc>Created with Sketch.</desc>
    <defs></defs>
    <g id="icon/professional" stroke="none" stroke-width="1" fill="none" fill-rule="evenodd">
        <g id="Page-1" fill="#003057">
            <path d="M51.3861887,108.95784 L32.0817877,133.298019 C31.2132216,134.395778 30.1153542,135 28.9914297,135 C27.8619465,135 26.7633842,134.396478 25.895513,133.297669 L6.61543179,108.951885 L6.61369466,108.950134 C5.1041269,107.047796 4.60035861,104.111801 5.32960664,101.470386 L25.2659763,29.3153738 C25.9778531,26.7342058 27.7379152,25 29.6452862,25 L29.6901042,25 C31.6270065,25.02557 33.3860264,26.8161699 34.067677,29.4558337 L52.7095359,101.621004 C53.3828483,104.211629 52.8627509,107.092281 51.3861887,108.95784 Z M21,9.57502077 C21,7.05222155 23.0528207,5 25.5759971,5 L33.4240029,5 C35.9471793,5 38,7.05222155 38,9.57502077 L38,16.4249792 C38,18.9477785 35.9471793,21 33.4240029,21 L25.5759971,21 C23.0528207,21 21,18.9477785 21,16.4249792 L21,9.57502077 Z M57.5476826,100.614888 L38.8206617,28.7043266 C38.4129835,27.1391564 37.7456198,25.7422316 36.8897748,24.5631182 C40.2101883,23.1319858 42.5407257,19.8278153 42.5407257,15.988541 L42.5407257,9.33237925 C42.5407257,4.18658575 38.3546939,0 33.2091523,0 L25.5857787,0 C20.4402371,0 16.2542054,4.18658575 16.2542054,9.33237925 L16.2542054,15.988541 C16.2542054,19.9782588 18.7714789,23.3895896 22.2999201,24.721939 C21.5383157,25.8106467 20.933081,27.0770243 20.5414586,28.485468 L0.512520071,100.389398 C-0.645244235,104.548757 0.190705573,109.077069 2.69436652,112.206711 L22.0608279,136.463358 C23.8768809,138.744094 26.3383081,140 28.991707,140 C31.6381251,140 34.097109,138.744792 35.9142091,136.467197 L55.3082447,112.211598 C57.7592006,109.140248 58.6167909,104.695361 57.5476826,100.614888 Z" id="Fill-3"></path>
        </g>
    </g>
</svg>