<?xml version="1.0" encoding="UTF-8"?>
<svg width="277px" height="250px" viewBox="0 0 277 250" version="1.1" xmlns="http://www.w3.org/2000/svg" xmlns:xlink="http://www.w3.org/1999/xlink">
    <!-- Generator: Sketch 50 (54983) - http://www.bohemiancoding.com/sketch -->
    <title>icon/cardgame</title>
    <desc>Created with Sketch.</desc>
    <defs></defs>
    <g id="icon/cardgame" stroke="none" stroke-width="1" fill="none" fill-rule="evenodd">
        <g id="Page-1" transform="translate(51.000000, 0.000000)" fill="#A03220">
            <path d="M27.5482011,4.23469388 C14.6894988,4.23469388 4.22816728,14.7121735 4.22816728,27.5907245 L4.22816728,221.409276 C4.22816728,234.287827 14.6894988,244.765306 27.5482011,244.765306 L148.451799,244.765306 C160.96802,244.765306 171.429351,234.427571 171.772678,221.721796 L171.771833,27.5907245 C171.771833,14.7121735 161.310501,4.23469388 148.451799,4.23469388 L27.5482011,4.23469388 Z M148.451799,249 L27.5482011,249 C12.3580873,249 0,236.622837 0,221.409276 L0,27.5907245 C0,12.3771633 12.3580873,0 27.5482011,0 L148.451799,0 C163.641913,0 176,12.3771633 176,27.5907245 L176,221.778541 C175.594942,236.814245 163.236854,249 148.451799,249 Z" id="Fill-9"></path>
            <path d="M105.359017,132.232498 C105.335523,131.952325 105.323776,131.670465 105.286856,131.39198 C105.2298,130.970033 104.884942,130.744713 104.493095,130.894927 C104.256477,130.986067 104.027411,131.121934 103.825195,131.278054 C103.406499,131.599578 103.126249,132.041778 102.883758,132.503388 C102.045526,134.098347 101.51775,135.79626 101.268546,137.581095 C101.203099,138.051988 101.163662,138.5271 101.241696,139.004744 C101.275259,139.211498 101.381821,139.337238 101.569773,139.405593 C101.82485,139.498422 102.072376,139.469729 102.268719,139.292512 C102.538899,139.046938 102.80908,138.792083 103.032273,138.504315 C103.900711,137.379405 104.499808,136.113564 104.90424,134.75152 C105.14841,133.928724 105.343913,133.099177 105.359017,132.232498 M128.720427,107.292067 C128.307604,107.306413 127.951838,107.437217 127.567543,107.704731 C127.031377,108.078576 126.574923,108.538498 126.172169,109.049897 C125.474062,109.93683 124.877482,110.890429 124.381591,111.904789 C123.982194,112.722522 123.633979,113.56304 123.439315,114.457567 C123.381419,114.720862 123.347856,114.991752 123.334431,115.26011 C123.325201,115.445767 123.392327,115.484586 123.578601,115.454206 C123.673416,115.439016 123.770748,115.419606 123.85885,115.380787 C124.214616,115.227198 124.579612,115.0888 124.917758,114.902299 C126.336627,114.119166 127.58852,113.116621 128.717071,111.952891 C128.897471,111.768079 128.996481,111.57989 128.983056,111.323347 C128.925999,110.263416 128.876494,109.203486 128.816081,108.1444 C128.800139,107.865071 128.75399,107.589118 128.720427,107.292067 M106.000906,137.304298 C105.910286,137.46717 105.858264,137.55831 105.809598,137.651139 C105.246581,138.730478 104.62483,139.769311 103.773173,140.650336 C103.418246,141.016586 103.033951,141.348236 102.589244,141.602248 C101.325603,142.324621 99.7204606,141.965966 98.9451591,140.787891 C98.6229559,140.298433 98.5432442,139.744838 98.52898,139.173523 C98.5004516,138.091651 98.6724611,137.034252 98.9040446,135.983605 C99.1138123,135.030005 99.3772806,134.092439 99.7229778,133.178503 C99.7447936,133.120274 99.7582187,133.05867 99.7867471,132.959934 C99.7204606,132.970905 99.6818633,132.971749 99.6483005,132.984407 C98.1539153,133.562474 96.5974389,133.915222 95.046836,134.292442 C94.7850459,134.356578 94.5266121,134.433372 94.2631438,134.488225 C94.0961687,134.523669 94.0332384,134.617341 94.0147789,134.777681 C93.9300327,135.532122 93.8327005,136.284875 93.7504716,137.038472 C93.6170593,138.246083 93.5289569,139.457915 93.5373476,140.673965 C93.5398648,141.041059 93.5356694,141.409841 93.5432211,141.776934 C93.5516118,142.198881 93.7278166,142.525468 94.0961687,142.744036 C94.2346154,142.826738 94.3697058,142.919566 94.4922102,143.024209 C94.8152524,143.301006 94.8731483,143.71367 94.6524727,144.078232 C94.0105835,145.135631 92.5992664,145.31538 91.7274718,144.450389 C91.2643047,143.990467 91.0092271,143.420839 90.9194466,142.783699 C90.7784827,141.793812 90.7432417,140.79633 90.8237925,139.798848 C90.9295154,138.491657 91.0444681,137.184465 91.1527082,135.877274 C91.1644552,135.728749 91.1543864,135.578536 91.1543864,135.381065 C90.948814,135.426635 90.7633794,135.463766 90.5796229,135.508493 C89.8445968,135.690774 89.1036973,135.829172 88.34266,135.80048 C88.1723286,135.793729 87.9978019,135.766724 87.8350222,135.717778 C87.5900135,135.643516 87.3995444,135.486551 87.2694884,135.259544 C87.08741,134.940552 87.0093765,134.589493 87.0001467,134.231682 C86.9959513,134.087376 87.0823756,133.915222 87.1797078,133.798764 C87.2862698,133.671336 87.4414979,133.56585 87.596726,133.501714 C87.8744585,133.388632 88.1630989,133.29074 88.4559346,133.226604 C89.3184994,133.036728 90.1852596,132.862042 91.0520197,132.690732 C91.1996962,132.661196 91.2886377,132.600435 91.3146489,132.452754 C91.3733839,132.121948 91.4530956,131.793673 91.4866584,131.460335 C91.6452428,129.886474 91.8222868,128.313456 91.8835389,126.730312 C91.9011594,126.273765 91.9817102,125.824814 92.1528807,125.39696 C92.475923,124.593573 93.2973733,124.218884 94.1154674,124.503277 C94.4385096,124.615514 94.6273006,124.8594 94.7128858,125.180079 C94.8395855,125.656035 94.8731483,126.145493 94.8118962,126.631576 C94.7195984,127.362388 94.5903815,128.08898 94.4964055,128.819792 C94.3655105,129.829089 94.2455233,130.840917 94.2497187,131.880594 C94.5391981,131.937135 94.8093789,131.845995 95.0803988,131.810551 C97.0211697,131.559071 98.9099181,131.083115 100.769299,130.470448 C101.298753,130.296606 101.765276,130.078881 102.200754,129.718539 C103.0801,128.991103 104.087824,128.515147 105.233156,128.354807 C106.112502,128.232442 106.697335,128.529493 107.070721,129.332036 C107.088342,129.370855 107.109318,129.410518 107.121065,129.451869 C107.237696,129.851874 107.420614,130.208841 107.724357,130.505892 C107.966849,130.742182 107.941677,131.05611 107.898884,131.363287 C107.837632,131.802956 107.77638,132.242625 107.713449,132.682293 C107.636255,133.217322 107.727714,133.743911 107.806586,134.267969 C107.891332,134.835066 107.986147,135.403006 108.125433,135.959132 C108.211018,136.300909 108.355339,136.638466 108.531543,136.943956 C108.77823,137.370122 109.118893,137.439321 109.55521,137.201343 C110.017538,136.948175 110.378338,136.570955 110.722357,136.18192 C111.674703,135.104268 112.446648,133.904251 113.049101,132.597904 C113.36627,131.909287 113.643163,131.202104 113.948585,130.509267 C114.109686,130.142173 114.302673,129.79027 114.464613,129.424864 C114.529222,129.280558 114.569497,129.119374 114.587118,128.961566 C114.707105,127.895729 114.793529,126.824828 114.937849,125.762366 C115.107342,124.514247 115.359063,123.280475 115.897746,122.131092 C116.052974,121.800285 116.258547,121.489733 116.469993,121.191838 C116.678082,120.899007 116.980148,120.728541 117.335914,120.66778 C117.684128,120.607864 117.98955,120.745418 118.150651,121.061879 C118.328534,121.412938 118.430062,121.7775 118.354546,122.187633 C118.093595,123.60453 117.833483,125.023115 117.604416,126.44592 C117.455062,127.37589 117.332557,128.312612 117.249489,129.251022 C117.160548,130.265382 117.093422,131.284805 117.085871,132.302541 C117.076641,133.461207 117.111882,134.623248 117.309063,135.770944 C117.364442,136.094999 117.472682,136.400488 117.660634,136.672222 C117.961021,137.105983 118.392304,137.260416 118.904137,137.127924 C119.384086,137.003028 119.790196,136.735514 120.17449,136.435088 C121.083204,135.725373 121.843402,134.867134 122.565842,133.97345 C123.289121,133.081455 123.927654,132.127855 124.570382,131.176787 C124.802805,130.832478 124.886712,130.496609 124.884195,130.09154 C124.87077,128.670423 124.890068,127.249306 124.890068,125.828189 C124.890068,125.451813 124.865735,125.074593 124.85231,124.713406 C124.363132,124.558974 123.905838,124.434921 123.46197,124.27205 C122.402223,123.884703 121.419671,123.344611 120.492498,122.703252 C120.288604,122.563165 120.095618,122.401138 119.920252,122.226452 C119.577911,121.886363 119.681956,121.319266 120.122468,121.120951 C120.528578,120.936982 120.9607,120.932763 121.392821,120.996055 C121.833333,121.059347 122.2428,121.225594 122.655623,121.388465 C123.286604,121.637414 123.93101,121.850919 124.570382,122.077083 C124.619888,122.094804 124.675266,122.093117 124.741553,122.103243 C124.741553,121.876236 124.745748,121.661887 124.739875,121.447538 C124.735679,121.263569 124.727289,121.078756 124.707151,120.895632 C124.665197,120.509128 124.807839,120.19098 125.066273,119.923466 C125.468188,119.506583 125.937229,119.21122 126.533808,119.188435 C127.011239,119.170713 127.380431,119.40194 127.531463,119.857642 C127.61537,120.109123 127.638864,120.385076 127.659002,120.653434 C127.679979,120.932763 127.664037,121.215467 127.664037,121.520957 C127.865414,121.482981 127.95016,121.336144 128.037423,121.213779 C128.541705,120.514192 128.938585,119.762282 129.109756,118.904887 C129.375741,117.576598 129.408465,116.235651 129.330431,114.888797 C129.315328,114.618751 129.29519,114.348705 129.275053,114.078659 C129.273374,114.060094 129.254076,114.043216 129.228065,114.003553 C129.066124,114.068532 128.980539,114.223809 128.868103,114.34111 C127.936735,115.315807 126.922298,116.186705 125.765219,116.88123 C125.09648,117.282923 124.401729,117.623856 123.630623,117.786728 C122.583463,118.007828 121.813196,117.698119 121.266121,116.778275 C121.079848,116.46519 120.970769,116.107379 120.829805,115.768134 C120.797081,115.690496 120.777782,115.607794 120.737507,115.479523 C120.633462,115.600199 120.556268,115.685433 120.483268,115.774041 C119.778449,116.633125 118.951964,117.360561 118.063388,118.018798 C117.278018,118.601085 116.389442,118.901511 115.411924,118.930203 C114.456223,118.958896 113.702737,118.559734 113.104479,117.831454 C112.77892,117.43398 112.520486,116.992624 112.355189,116.509073 C112.099273,115.761383 111.878597,115.001879 111.636945,114.249126 C111.51444,113.86853 111.382706,113.489621 111.247616,113.112401 C111.200628,112.980754 111.139376,112.852482 111.069733,112.730117 C110.827241,112.300575 110.57552,112.233064 110.174444,112.530958 C109.978941,112.676108 109.799379,112.86514 109.666806,113.069362 C109.327822,113.596796 109.007297,114.137732 108.700197,114.685419 C108.192559,115.592604 107.720162,116.519199 107.199099,117.41879 C106.693139,118.29222 106.099077,119.105733 105.370764,119.811228 C105.232317,119.946251 105.072893,120.060177 104.924378,120.185917 C104.75992,120.326003 104.575324,120.332755 104.376465,120.279589 C103.925045,120.158912 103.593612,119.880428 103.341051,119.495612 C103.001228,118.976618 102.852712,118.389268 102.761253,117.785884 C102.701679,117.391785 102.668116,116.993468 102.617772,116.548736 C102.554842,116.630593 102.51121,116.674476 102.481843,116.725953 C101.668783,118.171543 100.620784,119.435696 99.4989459,120.643307 C98.9896299,121.191838 98.4543027,121.710833 97.8468154,122.148813 C97.1646508,122.640803 96.4380154,123.024775 95.5855195,123.12773 C94.372223,123.274568 93.3493957,122.912537 92.5287844,122.001132 C91.9003204,121.304076 91.5235776,120.464402 91.2416498,119.580845 C90.8581944,118.376609 90.6391969,117.141149 90.6341625,115.873621 C90.6308062,115.125931 90.6484267,114.379085 90.6576565,113.631396 C90.6702425,112.529271 91.6981043,111.551198 92.5052904,111.366385 C93.2377993,111.199294 93.5876918,111.412799 93.7127134,112.162177 C93.732012,112.279478 93.7420808,112.400155 93.7412418,112.5183 C93.732012,113.504812 93.7152306,114.492167 93.7060008,115.478679 C93.6959319,116.746207 93.838574,117.99095 94.3420165,119.168181 C94.4636818,119.454261 94.632335,119.722619 94.8001492,119.986758 C94.9478256,120.221361 95.1726966,120.294779 95.4470728,120.24077 C96.0579164,120.118406 96.6251282,119.902369 97.1252145,119.516709 C97.830034,118.974086 98.4727622,118.366482 99.0752151,117.712465 C100.339695,116.340294 101.458176,114.854197 102.512888,113.315779 C102.627002,113.149532 102.685737,112.982441 102.704196,112.779907 C102.779713,111.936013 102.909769,111.101403 103.184984,110.296328 C103.399786,109.66594 103.83862,109.323319 104.490578,109.243993 C104.977239,109.18492 105.296925,109.341885 105.540256,109.770582 C105.811276,110.247382 105.828896,110.768065 105.759253,111.289591 C105.591439,112.535178 105.400131,113.777389 105.226443,115.022132 C105.180294,115.353782 105.163513,115.689652 105.132467,116.028053 C105.296086,116.049151 105.31119,115.925098 105.351465,115.852523 C105.740794,115.152092 106.110824,114.44069 106.511061,113.747009 C106.991009,112.911554 107.480188,112.081163 107.992021,111.265962 C108.376315,110.654139 108.875562,110.145271 109.503187,109.775646 C110.179479,109.378172 110.913666,109.237242 111.683093,109.324163 C112.310718,109.39505 112.777242,109.756236 113.14056,110.257509 C113.455211,110.69127 113.675887,111.174821 113.819368,111.689596 C114.045078,112.503954 114.244777,113.324218 114.468809,114.13942 C114.551877,114.44069 114.665151,114.735208 114.778426,115.027196 C114.832126,115.168126 114.909321,115.301461 114.989872,115.428889 C115.400177,116.081219 115.83146,116.233963 116.557256,115.989234 C117.065733,115.81708 117.507084,115.525937 117.924941,115.198506 C118.867218,114.460943 119.667692,113.579918 120.413626,112.649947 C120.907838,112.033905 121.363454,111.386639 121.846759,110.763001 C122.085055,110.455824 122.35104,110.172276 122.598566,109.873537 C122.701772,109.749485 122.794909,109.61615 122.884689,109.481971 C123.736346,108.197565 124.752461,107.072655 126.012745,106.178128 C126.835035,105.594997 127.721093,105.166299 128.731335,105.043935 C129.183594,104.989081 129.639209,104.967984 130.082239,105.086973 C130.307949,105.147733 130.534498,105.237186 130.735875,105.357019 C131.205755,105.63888 131.452441,106.064202 131.44489,106.624547 C131.436499,107.340169 131.394546,108.057479 131.42643,108.771412 C131.475096,109.875225 131.551452,110.979038 131.658853,112.078631 C131.793943,113.469368 132.024688,114.851666 132.025527,116.255061 C132.027205,117.817952 131.862747,119.352994 131.230927,120.801959 C130.635186,122.171599 129.744093,123.287226 128.425913,124.020569 C128.162445,124.166563 127.883873,124.28302 127.605302,124.416356 C127.479441,127.102469 127.35358,129.785206 127.224363,132.542207 C127.320018,132.418998 127.387143,132.343892 127.441683,132.262034 C128.216145,131.08649 128.984734,129.906727 129.764231,128.734559 C130.585681,127.499943 131.396224,126.254356 132.391362,125.148855 C132.658186,124.852649 132.956056,124.582603 133.255605,124.318464 C133.678496,123.944619 134.192847,123.899049 134.719783,123.978375 C135.139319,124.039979 135.370063,124.334498 135.317202,124.761508 C135.284478,125.025647 135.194697,125.288941 135.092331,125.537046 C134.824667,126.182625 134.436177,126.759004 134.007412,127.303315 C132.93508,128.663672 131.851839,130.015589 130.774472,131.370882 C130.688048,131.478901 130.606658,131.591983 130.51436,131.714347 C130.564704,131.75401 130.593233,131.786078 130.629313,131.802112 C132.454292,132.611406 134.275915,133.427451 136.184801,134.02324 C137.174905,134.331261 138.176755,134.582741 139.214686,134.670506 C139.810426,134.72114 140.398615,134.688228 140.988481,134.614809 C141.147905,134.594556 141.312363,134.577678 141.470947,134.593712 C141.91985,134.639282 142.131296,135.015659 141.913977,135.415664 C141.814966,135.598789 141.657221,135.766724 141.490246,135.894996 C140.826541,136.403864 140.072216,136.720324 139.248249,136.841845 C137.633876,137.079823 136.069848,136.813152 134.529314,136.337196 C133.317696,135.962507 132.195858,135.378533 131.054722,134.841817 C130.380948,134.525357 129.712209,134.200458 129.082066,133.898344 C129.004872,133.918597 128.977182,133.916909 128.964596,133.930412 C128.481292,134.429153 128.040779,134.960806 127.732001,135.59035 C127.527268,136.007234 127.467694,136.453654 127.45343,136.915263 C127.441683,137.281513 127.415672,137.656202 127.327569,138.009793 C127.11025,138.884911 126.461648,139.349052 125.56552,139.318672 C125.234927,139.307702 125.057883,139.1904 124.985722,138.862126 C124.911884,138.525412 124.850632,138.178572 124.845598,137.835107 C124.824621,136.68488 124.831333,135.535497 124.827977,134.38527 C124.827977,134.280628 124.827977,134.175985 124.772599,134.049401 C124.718898,134.121976 124.660163,134.192019 124.611497,134.267969 C123.89493,135.380221 123.122146,136.451122 122.22434,137.424131 C121.495188,138.214016 120.705622,138.931325 119.770058,139.474793 C118.999791,139.922056 118.167433,140.060455 117.304029,139.940622 C116.268616,139.79716 115.562957,139.182805 115.125801,138.24524 C114.843873,137.640168 114.686967,136.995433 114.614807,136.337196 C114.537612,135.637608 114.515797,134.932113 114.471326,134.22915 C114.465452,134.134634 114.470487,134.039274 114.412591,133.921129 C114.364764,134.008894 114.312741,134.095815 114.269949,134.185268 C113.610439,135.573473 112.801575,136.862098 111.764483,137.998823 C111.244259,138.568451 110.677887,139.083226 110.013342,139.481544 C109.446131,139.822477 108.836965,139.940622 108.181651,139.854545 C107.476831,139.76256 106.949895,139.397998 106.608393,138.787019 C106.419602,138.449462 106.292902,138.075617 106.142709,137.716962 C106.09656,137.608944 106.065514,137.495018 106.000906,137.304298" id="Fill-11"></path>
            <path d="M55.5704374,152.832172 C55.1684708,152.630576 54.7978152,152.452597 54.4330834,152.261123 C50.5428928,150.210577 47.5996509,147.229651 45.617744,143.312441 C44.4583876,141.019811 43.7179228,138.593064 43.3184949,136.058349 C43.0798537,134.545955 42.9283757,133.027657 42.9309145,131.495863 C42.9385307,127.468998 43.8228572,123.62939 45.4527261,119.955109 C47.0098178,116.446152 49.1212004,113.288935 51.629472,110.390673 C54.3789237,107.214055 57.5015696,104.445691 60.9060153,101.985204 C63.7121654,99.9574325 66.6655623,98.1709015 69.7458959,96.5901843 C72.3396384,95.2582992 75.0103892,94.101862 77.7437622,93.0871326 C77.8351567,93.0533926 77.9282437,93.0188092 78.0238695,93.0061567 C78.342904,92.9648252 78.6094714,93.1343686 78.7110208,93.4312802 C78.8058003,93.7104784 78.7093283,94.0107641 78.4436072,94.1642809 C78.1524988,94.3321372 77.8461579,94.4746886 77.546587,94.6282054 C73.5506157,96.6652557 69.7001986,98.9401727 66.054573,101.555863 C63.4354431,103.434336 60.9534051,105.47476 58.6380774,107.712563 C55.5856698,110.662279 52.8878391,113.900472 50.7603779,117.584033 C49.2278273,120.238524 48.0532385,123.040628 47.3889358,126.040954 C46.8981134,128.256826 46.7170169,130.492942 46.882881,132.760268 C47.0411289,134.928904 47.3779346,137.067174 48.00331,139.150617 C48.957875,142.334826 50.5081968,145.188383 52.8108308,147.618504 C54.2308307,149.117402 55.8285423,150.398677 57.533727,151.554271 C57.6327377,151.620907 57.7342872,151.68417 57.8290666,151.757554 C58.3122728,152.130381 58.3723563,152.736013 57.9466948,153.178006 C57.4262538,153.717846 56.8981966,154.250937 56.3523682,154.762941 C53.7450858,157.204871 50.7976127,159.144919 47.5658011,160.66153 C47.0055866,160.924702 46.4284472,161.152447 45.8589239,161.396218 C45.7827618,161.429958 45.7065997,161.465385 45.6380538,161.540456 C45.7599132,161.540456 45.8817726,161.546361 46.0036319,161.539613 C47.448173,161.453576 48.8825591,161.273911 50.312714,161.057131 C52.4308665,160.736602 54.5270167,160.3022 56.6214743,159.856832 C59.2812239,159.290844 61.904585,158.591583 64.4847876,157.732901 C66.7036433,156.993996 68.8835717,156.157245 71.0161104,155.19903 C71.473083,154.99406 71.9148231,154.954415 72.407338,155.063227 C74.0422844,155.42087 75.6797694,155.767549 77.3240244,156.077956 C78.2091972,156.244969 79.1096025,156.333536 80.004084,156.451626 C80.7800911,156.55369 81.5569445,156.651536 82.3337978,156.742634 C82.6579099,156.780591 82.9837144,156.800835 83.3095189,156.816861 C84.9376953,156.895307 86.5658716,157.001588 88.1957405,157.035328 C89.4888036,157.063163 90.7844055,157.022675 92.0774686,156.970378 C92.9668727,156.934108 93.8545842,156.826983 94.743142,156.751069 C95.2517355,156.707207 95.7637141,156.680215 96.2697689,156.615265 C97.142248,156.503923 98.0138809,156.374024 98.882975,156.239065 C99.7419142,156.104948 100.604238,155.983484 101.454715,155.805506 C102.69785,155.544021 103.940138,155.264823 105.16804,154.940076 C106.102295,154.693774 107.017933,154.374932 107.935263,154.070428 C110.445227,153.237895 112.878183,152.216418 115.272212,151.096251 C118.760436,149.464924 122.158111,147.664897 125.459315,145.687735 C127.71456,144.336449 129.95034,142.951424 132.191198,141.574833 C133.357325,140.858703 134.514142,140.126545 135.67773,139.40451 C135.796204,139.331126 135.926526,139.262802 136.060233,139.229906 C136.36742,139.153991 136.692378,139.28642 136.859935,139.542844 C137.044416,139.824573 137.047801,140.117267 136.86332,140.398152 C136.76854,140.54239 136.64922,140.671446 136.537515,140.804719 C134.553069,143.168203 132.297825,145.246585 129.859792,147.136023 C127.672247,148.830612 125.345072,150.307579 122.912962,151.624281 C120.683106,152.831328 118.372855,153.85618 115.999137,154.751976 C114.125549,155.458828 112.218112,156.061086 110.291211,156.585743 C107.985192,157.213306 105.662248,157.787729 103.303762,158.197669 C102.543833,158.330099 101.791521,158.508077 101.029054,158.626167 C99.8798522,158.804145 98.7281121,158.969471 97.572987,159.101057 C96.525335,159.21999 95.4726056,159.290844 94.4224149,159.373507 C93.6201742,159.43677 92.8170872,159.486536 92.0148465,159.542207 C91.9496856,159.546424 91.8845247,159.549798 91.8185175,159.549798 C90.2851207,159.554016 88.7500313,159.575947 87.2166344,159.554859 C86.3263842,159.542207 85.4361339,159.462075 84.5467299,159.408934 C84.0686011,159.381099 83.5904724,159.357481 83.1148825,159.312775 C82.1408539,159.21999 81.1685178,159.122144 80.1970279,159.01249 C79.2026895,158.900304 78.2091972,158.784745 77.21909,158.644724 C76.5632497,158.552783 75.9124869,158.41951 75.2608779,158.298046 C74.2885418,158.118381 73.317052,157.931967 72.3455621,157.748928 C72.183083,157.717718 72.0358363,157.716031 71.8784346,157.80966 C68.7634049,159.672106 65.434275,161.038574 61.9553597,162.056678 C59.9082919,162.655562 57.8349904,163.142261 55.7244541,163.449295 C54.6708784,163.602811 53.6088403,163.698127 52.5476484,163.792599 C50.2915579,163.993352 48.0295437,164.013596 45.7675294,163.994195 C44.2772911,163.981543 42.7870527,163.959612 41.2985069,163.904784 C39.8971243,163.852487 38.4982805,163.753798 37.0977442,163.673665 C36.2658848,163.625586 35.7293652,162.718824 36.142333,161.915813 C36.3428932,161.527804 36.6864689,161.33886 37.1095916,161.278972 C37.5614867,161.214866 38.0142281,161.154977 38.4652769,161.081593 C40.9862423,160.673339 43.4318918,159.997696 45.7988405,159.040325 C48.1158607,158.103198 50.2991741,156.920612 52.3411645,155.480759 C53.4260513,154.714862 54.4567783,153.883172 55.4341919,152.986532 C55.4731192,152.950262 55.5044302,152.9064 55.5704374,152.832172" id="Fill-13"></path>
            <path d="M59.8244685,123.719932 C59.8244685,123.884565 59.8098967,124.051769 59.8287543,124.214687 C59.8501834,124.399041 59.8853271,124.585967 59.9436143,124.761747 C60.0353308,125.037849 60.1553337,125.095299 60.4176257,124.988116 C60.6002016,124.913517 60.7759201,124.816624 60.9396384,124.706869 C61.8593749,124.086925 62.6891093,123.360656 63.3551254,122.474042 C63.9354252,121.700613 64.4642952,120.886026 64.9897364,120.073153 C65.1963129,119.751605 65.3326019,119.384612 65.4988916,119.038198 C65.574322,118.879568 65.5854652,118.740659 65.4448903,118.591461 C65.244314,118.376239 65.1568834,118.099279 65.1277398,117.807743 C65.102882,117.556507 65.0934532,117.303556 65.066024,117.05232 C65.0514522,116.911696 65.0360233,116.763356 64.982022,116.634737 C64.8183037,116.244592 64.5817266,115.899893 64.264576,115.616931 C63.981712,115.364838 63.8282798,115.359693 63.5548446,115.628078 C63.3516968,115.828724 63.1674066,116.050806 62.996831,116.279748 C61.7728014,117.917497 60.8847799,119.730169 60.2187638,121.656025 C59.9881868,122.324844 59.8141825,123.005668 59.8244685,123.719932 M76.4834433,118.999613 C76.4165846,119.094791 76.3497258,119.189969 76.2845814,119.286862 C75.412846,120.578197 74.438251,121.788074 73.3196524,122.873619 C72.919357,123.262048 72.4564887,123.590456 72.0030491,123.918863 C71.6884701,124.146948 71.3233184,124.283284 70.9333089,124.328729 C70.1387183,124.42305 69.4812738,124.147805 68.9549753,123.557872 C68.3163884,122.841893 67.9520939,121.984432 67.7129453,121.067807 C67.6100856,120.67509 67.5252264,120.278086 67.4172238,119.82106 C67.350365,119.961683 67.3066497,120.046572 67.2680773,120.134033 C66.3834845,122.139633 65.217742,123.959164 63.6534184,125.50345 C62.5451058,126.596712 61.2336455,127.318694 59.6830365,127.600798 C58.8181584,127.757713 58.1718571,127.474752 57.6798452,126.779351 C57.3215508,126.273449 57.1561182,125.698093 57.0584015,125.090154 C56.9006834,124.106647 57.0875451,123.16344 57.3198364,122.216804 C57.7869906,120.311527 58.465007,118.491139 59.455031,116.794224 C59.8836128,116.059381 60.3884822,115.380272 60.9310667,114.724315 C61.6682274,113.834271 62.6145361,113.324082 63.7297059,113.096855 C64.0091413,113.040262 64.2928624,112.998247 64.5757264,112.955374 C64.9117346,112.904784 65.2048845,113.008536 65.4706052,113.211755 C65.9497597,113.575318 66.2506241,114.072645 66.5077732,114.601698 C66.564346,114.71917 66.616633,114.838357 66.6989207,115.015851 C66.7306357,114.901809 66.7597793,114.847789 66.7589221,114.794627 C66.7314929,113.505864 66.7023493,112.217958 66.6723486,110.929195 C66.6603483,110.44473 66.6372049,109.960265 66.6346334,109.475799 C66.6312048,108.74953 66.6260618,108.022404 66.6500624,107.296992 C66.6714915,106.675334 67.0092139,106.275757 67.6057998,106.09912 C68.1209551,105.946492 68.6301103,105.970501 69.1281224,106.168575 C69.5378466,106.331492 69.697279,106.593875 69.6775643,106.974587 C69.6269916,107.975244 69.5824191,108.976757 69.5498469,109.978271 C69.4941312,111.674328 69.4367013,113.369527 69.4024147,115.065584 C69.3664139,116.855104 69.6364204,118.601751 70.215863,120.295235 C70.3221513,120.605636 70.4730121,120.90489 70.6393018,121.187852 C70.8013058,121.463096 70.9521665,121.503397 71.2547453,121.378208 C71.4664647,121.290747 71.6696125,121.173275 71.8573313,121.042083 C72.4042017,120.661371 72.872213,120.189768 73.2785086,119.667574 C74.1459582,118.555448 74.9928358,117.427888 75.8439993,116.303757 C76.2502948,115.767844 76.6540189,115.230216 77.0465998,114.684014 C77.1391735,114.555395 77.2034608,114.396765 77.241176,114.241565 C77.3174635,113.932021 77.3628932,113.615618 77.4271805,113.302645 C77.4537526,113.173169 77.4871819,113.045407 77.529183,112.920218 C77.8197614,112.050753 78.6049233,111.951288 79.1740799,112.067045 C79.436372,112.120207 79.6232337,112.293414 79.7655228,112.513782 C79.9626705,112.819038 80.0406723,113.158592 80.0569585,113.51701 C80.0869592,114.162678 79.9455272,114.787767 79.8280958,115.41457 C79.6789493,116.216296 79.5083737,117.012877 79.3626559,117.814602 C79.2675108,118.339368 79.2632249,118.868421 79.4072284,119.387185 C79.4629441,119.586973 79.5323743,119.788476 79.6292338,119.971115 C79.8280958,120.346683 80.1229601,120.476159 80.5378272,120.406705 C80.9886953,120.331249 81.4052768,120.164044 81.8012864,119.940247 C82.9387425,119.299724 83.8173352,118.383098 84.5784965,117.340427 C85.5410913,116.02251 86.1351056,114.563112 86.3056812,112.931365 C86.3502537,112.506922 86.4531133,112.085909 86.5619731,111.670898 C86.6228317,111.440241 86.7376917,111.220731 86.8508373,111.008081 C87.006841,110.713972 87.2734189,110.569062 87.5965696,110.522759 C88.2557284,110.428438 88.6765958,110.706255 88.8557429,111.355353 C89.0108896,111.916132 89.0366045,112.49063 88.9534596,113.059984 C88.7965987,114.138669 88.6037368,115.21221 88.4288755,116.287465 C88.1494401,118.004958 87.860576,119.720737 87.5982839,121.440802 C87.4319942,122.52892 87.2991338,123.623039 87.1697021,124.716301 C87.0634138,125.61492 87.0231271,126.517826 87.0711283,127.422446 C87.0805571,127.596511 87.101129,127.77915 87.1611305,127.940353 C87.2451325,128.168437 87.2622758,128.388804 87.1971314,128.617746 C87.0325559,129.199962 86.8636947,129.78132 86.6991193,130.363536 C86.60826,130.685941 86.3811116,130.866008 86.0682469,130.924315 C85.8102406,130.972333 85.5445199,131.006631 85.2839422,130.998914 C84.7970732,130.985195 84.4576364,130.728814 84.2639175,130.282934 C84.1241998,129.963102 84.0984849,129.62269 84.0881989,129.280563 C84.0564839,128.308203 84.1636293,127.344418 84.261346,126.379775 C84.4679224,124.335589 84.9205048,122.339421 85.4356601,120.355257 C85.5230908,120.016561 85.6250933,119.682151 85.6799518,119.325448 C85.6250933,119.400047 85.5693777,119.474646 85.5153763,119.55096 C84.4833514,121.0095 83.1470333,122.095045 81.4884217,122.759577 C80.3072502,123.233752 79.1526508,123.136859 78.0880536,122.414877 C77.1546025,121.782072 76.6488759,120.886026 76.5768742,119.755893 C76.5614452,119.516661 76.5751599,119.274857 76.5751599,119.033911 C76.544302,119.021907 76.5134441,119.01076 76.4834433,118.999613" id="Fill-15"></path>
            <path d="M72.0911652,141.55246 C72.0700713,141.843831 72.1941033,142.30675 72.5898244,142.671395 C72.8792323,142.937767 73.2057655,143.042936 73.5803927,142.911043 C73.8250817,142.824839 74.0723019,142.7326 74.2984282,142.605879 C75.5454981,141.906761 76.579098,140.958511 77.3975403,139.770613 C77.8253241,139.149078 78.1645136,138.480131 78.2817956,137.72067 C78.3957025,136.982759 78.2657642,136.288813 77.8666681,135.653485 C77.2304768,134.638858 75.6804989,134.581101 74.9995886,135.140569 C74.8392752,135.272461 74.6738992,135.400906 74.5296171,135.55004 C73.5584551,136.557771 72.9020137,137.753427 72.5138864,139.106838 C72.3054789,139.830956 72.1266029,140.560246 72.0911652,141.55246 M70.5572186,136.787075 C68.7431454,137.46809 66.9223221,137.825839 65.1040301,138.316343 C65.0609986,138.621507 65.0145921,138.924085 64.9766231,139.228386 C64.7260279,141.251606 64.5294329,143.279136 64.5623394,145.323045 C64.5640269,145.410974 64.5665582,145.499765 64.5674019,145.588555 C64.5724644,146.09199 64.756403,146.48853 65.2052807,146.737661 C65.3276252,146.805763 65.4423758,146.894554 65.548689,146.988517 C65.8541283,147.261785 65.9131911,147.683325 65.7047836,148.041936 C65.0677486,149.133285 63.6502402,149.327245 62.7651412,148.442787 C62.263107,147.940214 62.004918,147.311783 61.9239175,146.613527 C61.7593853,145.210117 61.8057918,143.806708 61.9424801,142.401575 C62.039512,141.399016 62.1070124,140.393871 62.1880128,139.389589 C62.1930754,139.325798 62.1880128,139.262006 62.1880128,139.160285 C61.9483864,139.218042 61.7399789,139.265454 61.533259,139.317177 C60.8574112,139.487 60.1739697,139.607686 59.477028,139.611134 C59.294777,139.611997 59.1083071,139.586135 58.9311186,139.542171 C58.6332731,139.469759 58.4003967,139.29304 58.2552708,139.012875 C58.0898948,138.693918 58.0139569,138.350825 58.0004568,137.991352 C57.9903317,137.714635 58.1498014,137.537916 58.3514589,137.39223 C58.6594295,137.170685 59.0138066,137.064653 59.3757774,136.987069 C60.2558139,136.797419 61.1358504,136.608631 62.0184181,136.436222 C62.2377944,136.393982 62.3398887,136.28364 62.3702639,136.074163 C62.431858,135.657796 62.5103272,135.244014 62.5516712,134.825922 C62.6647344,133.702677 62.7668288,132.577708 62.8621731,131.451877 C62.9052046,130.944995 62.9111109,130.434664 62.9566736,129.927782 C62.9954864,129.495897 63.1085495,129.080391 63.3152695,128.694195 C63.5034269,128.340757 63.7810223,128.108004 64.1708371,128.046799 C64.4146823,128.008869 64.6678088,127.98818 64.9133415,128.007145 C65.3183439,128.037317 65.6052206,128.269207 65.7267213,128.665748 C65.800128,128.906258 65.8355657,129.162286 65.8608783,129.414003 C65.9385038,130.197602 65.7520339,130.956202 65.6406583,131.721698 C65.4676885,132.905286 65.3369065,134.093184 65.2879687,135.289702 C65.2829061,135.395734 65.2871249,135.502627 65.2871249,135.643141 C65.8431595,135.562109 66.35785,135.492283 66.8700093,135.412975 C68.5676443,135.149189 70.2214041,134.707822 71.8464762,134.14232 C72.1519155,134.036289 72.4784487,133.993186 72.7923256,133.907844 C72.9138263,133.875086 73.035327,133.820777 73.1391089,133.749228 C73.9541762,133.18545 74.8232438,132.750117 75.7859683,132.515641 C77.5553225,132.085481 78.9458307,132.739773 80.043556,134.114735 C81.0636558,135.392286 81.1741877,136.868969 80.8105293,138.425822 C80.5793404,139.418036 80.1102126,140.280944 79.5035528,141.074887 C78.3501397,142.582604 77.0085693,143.873086 75.3548095,144.800646 C74.4697105,145.297184 73.53483,145.561832 72.5164177,145.484248 C70.9411271,145.363562 69.6999635,144.245489 69.3978992,142.660188 C69.2654297,141.963656 69.322805,141.270571 69.4350245,140.579211 C69.6299319,139.371486 69.9826215,138.211173 70.4475305,137.083618 C70.4762181,137.013793 70.500687,136.940519 70.5572186,136.787075" id="Fill-17"></path>
            <path d="M92.7017071,107 C92.2431384,106.99616 91.8526999,106.9664 91.4875918,106.779202 C91.0945329,106.577605 90.9766153,106.381767 91.0036927,105.912332 C91.0517332,105.090581 91.3958781,104.408988 91.8640549,103.789795 C92.5034307,102.944044 93.3384625,102.896045 94.2250286,103.102442 C94.581402,103.186922 94.8102497,103.470118 94.9019634,103.854114 C95.1089744,104.724825 94.9945506,105.543696 94.4975495,106.271368 C94.1717473,106.748483 93.6878482,106.907841 93.1733777,106.97312 C92.9960645,106.9952 92.8152574,106.99424 92.7017071,107" id="Fill-19"></path>
            <path d="M13.0541759,116 L13.0000065,38.7775859 C12.9898497,24.0288646 24.971458,12.0220231 39.7080914,12.0118586 L56.9983072,12 L57,14.5411305 L39.7097842,14.5529891 C33.2686964,14.5572243 27.2017164,17.0848021 22.6269359,21.6690015 C18.0521554,26.2540479 15.5349681,32.3290438 15.5392001,38.7758918 L15.5933695,115.998306 L13.0541759,116 Z" id="Fill-23"></path>
            <path d="M119.001693,238 L119,235.45887 L136.290216,235.447011 C142.73215,235.441929 148.79913,232.915198 153.373064,228.330151 C157.948691,223.745105 160.465031,217.670109 160.460799,211.224108 L160.40663,134.001694 L162.945824,134 L162.999993,211.222414 C163.005071,218.346897 160.224654,225.060564 155.169966,230.125884 C150.116125,235.191204 143.411807,237.983059 136.291908,237.988141 L119.001693,238 Z" id="Fill-25"></path>
        </g>
    </g>
</svg>