<?xml version="1.0" encoding="UTF-8"?>
<svg width="118px" height="103px" viewBox="0 0 118 103" version="1.1" xmlns="http://www.w3.org/2000/svg" xmlns:xlink="http://www.w3.org/1999/xlink">
    <!-- Generator: Sketch 50 (54983) - http://www.bohemiancoding.com/sketch -->
    <title>icon/community</title>
    <desc>Created with Sketch.</desc>
    <defs></defs>
    <g id="icon/community" stroke="none" stroke-width="1" fill="none" fill-rule="evenodd">
        <g id="Page-1" fill="#003057">
            <path d="M87.10431,5.65084 C82.25506,5.69564 77.67846,9.36119 76.64036,14.12714 C75.86546,17.68139 77.04076,21.60139 79.64511,24.14414 C82.61906,27.04774 87.32831,28.01899 91.24656,26.41634 C95.78746,24.55889 98.67636,19.32009 97.77476,14.45579 C96.88296,9.63979 92.43551,5.76529 87.38361,5.65259 C87.29051,5.65084 87.19776,5.65014 87.10431,5.65084 M30.65071,5.65084 C25.76086,5.69564 21.14961,9.42489 20.15876,14.25839 C19.43846,17.77519 20.61516,21.62834 23.19186,24.14414 C26.16476,27.04774 30.87401,28.01899 34.79226,26.41634 C38.23766,25.00724 40.84656,21.70219 41.38731,18.00829 C42.24166,12.17869 37.60101,6.06559 31.41476,5.67254 C31.16031,5.65609 30.90586,5.64979 30.65071,5.65084 M58.86071,33.87764 C52.69826,33.93714 46.87916,38.66354 45.66816,44.76894 C44.79701,49.16389 46.27751,53.96029 49.49296,57.09944 C53.22151,60.73909 59.13861,61.96479 64.06101,59.95264 C68.41676,58.17149 71.70011,53.97254 72.35356,49.30984 C73.15366,43.60029 69.86681,37.53339 64.58951,35.10719 C62.79996,34.28399 60.80846,33.87099 58.86071,33.87764 M77.62491,28.76939 C74.46931,26.27949 72.20586,22.62059 71.64481,18.62149 C70.96476,13.76699 72.71196,8.63984 76.22176,5.21264 C79.09071,2.41159 83.04711,0.78724 87.07386,0.75014 L87.27511,0.75014 C93.04766,0.80369 98.59656,4.25679 101.18131,9.37764 C103.33661,13.64764 103.38561,18.92074 101.30731,23.23029 C100.25626,25.40974 98.66796,27.29449 96.74576,28.75819 C99.92131,29.79979 102.93026,31.35134 105.60426,33.36349 C113.16356,39.05169 117.83711,48.31094 117.85181,57.88834 L117.85181,59.65409 C117.84411,59.83854 117.84761,59.88579 117.81646,60.06814 C117.48606,61.99734 114.36301,62.81844 113.26226,60.84899 C113.07641,60.51649 112.97981,60.33204 112.95146,59.65409 C112.95146,57.96884 112.95671,56.27694 112.74426,54.60359 C111.58786,45.50989 105.20456,37.25304 96.55256,33.87169 C89.07901,30.95059 80.26146,31.86654 73.45641,36.07984 C74.23341,37.05074 74.90996,38.10214 75.46681,39.22074 C77.95356,44.22049 77.99311,50.37139 75.56481,55.40789 C74.17706,58.28769 71.99656,60.72964 69.35896,62.52514 C76.90391,64.81589 83.72646,69.49819 88.39826,75.85104 C92.97311,82.07124 95.49346,89.69739 95.50536,97.50869 L95.50536,99.64229 C95.40386,101.57534 92.92971,102.82624 91.41526,101.46299 C91.03341,101.11859 90.76531,100.65484 90.65856,100.15154 C90.61096,99.92789 90.61691,99.86944 90.60501,99.64229 C90.60501,97.27209 90.58541,94.89034 90.21336,92.54709 C88.50886,81.80979 80.91526,72.20369 70.70436,68.11744 C59.82916,63.76554 46.59006,65.99154 37.70041,74.04259 C31.16906,79.95724 27.30401,88.63304 27.29036,97.51219 L27.29036,99.64229 C27.27846,99.86944 27.28441,99.92789 27.23646,100.15154 C26.83956,102.02019 23.83446,102.79999 22.71796,100.86729 C22.17896,99.93384 22.38826,98.63394 22.39001,97.39669 C22.42361,89.94659 24.78541,82.49929 29.10266,76.39704 C33.77201,69.79709 40.69536,64.90059 48.45801,62.53494 C45.85961,60.72439 43.70816,58.26564 42.33021,55.40754 C39.90226,50.37034 39.93866,44.22819 42.42856,39.22074 C42.98681,38.09864 43.66581,37.04304 44.44421,36.06759 C36.06696,30.82179 24.50751,30.86589 16.11871,36.64509 C9.28146,41.35504 4.95721,49.49429 4.94391,57.89149 L4.94391,59.65409 C4.93586,59.83854 4.94006,59.88579 4.90891,60.06814 C4.57676,62.00434 1.43726,62.78729 0.35471,60.84899 C0.16886,60.51649 0.07261,60.33204 0.04356,59.65409 C0.04356,57.78859 0.04916,55.92484 0.27806,54.08174 C1.66861,42.86284 9.75991,32.74014 20.52626,28.94789 C20.72856,28.87649 20.93156,28.80789 21.13491,28.74069 C17.99821,26.25114 15.74981,22.60519 15.19121,18.62079 C14.49891,13.67774 16.33116,8.44699 19.97116,5.01769 C22.81806,2.33564 26.67191,0.78654 30.61956,0.75014 L30.82151,0.75014 C36.68716,0.80404 42.32006,4.38139 44.85371,9.63279 C46.88966,13.85379 46.89001,19.00929 44.85371,23.23029 C43.80091,25.41254 42.21051,27.29799 40.28621,28.76309 C43.05016,29.66889 45.68706,30.95829 48.08281,32.59839 C51.17646,30.34789 54.95226,29.01439 58.82816,28.97729 C58.90726,28.97694 58.98776,28.97694 59.06721,28.97729 C62.90706,29.01439 66.69371,30.34754 69.80346,32.60469 C72.19431,30.97054 74.84801,29.67834 77.62491,28.76939" id="Fill-3"></path>
        </g>
    </g>
</svg>