<?xml version="1.0" encoding="UTF-8"?>
<svg width="260px" height="177px" viewBox="0 0 260 177" version="1.1" xmlns="http://www.w3.org/2000/svg" xmlns:xlink="http://www.w3.org/1999/xlink">
    <!-- Generator: Sketch 50 (54983) - http://www.bohemiancoding.com/sketch -->
    <title>icon/discussion-starter</title>
    <desc>Created with Sketch.</desc>
    <defs></defs>
    <g id="icon/discussion-starter" stroke="none" stroke-width="1" fill="none" fill-rule="evenodd">
        <g id="Page-1" transform="translate(5.000000, 3.000000)">
            <g id="Group" fill="#A03220" fill-rule="nonzero">
                <path d="M46.5562985,139.774775 C47.7852562,140.404083 48.2713685,141.910505 47.6420607,143.139463 C47.0127529,144.36842 45.5063311,144.854533 44.2773734,144.225225 C34.1931303,139.061424 26.5495971,131.529413 21.4220336,121.681231 C18.5008284,116.069553 16.5453839,110.021611 15.4902089,103.51726 C14.8329339,99.4541512 14.4944668,95.7538581 14.5000705,92.1640196 C14.5215039,82.3176015 16.7020597,72.7505174 20.9562398,63.4364242 C24.7671486,55.0913419 29.9948358,47.2977699 36.6237284,39.8613215 C43.3250214,32.3384701 51.089262,25.5411138 59.9692292,19.3065749 C66.8728297,14.4605384 74.2503561,10.0962004 82.1288019,6.16699246 C88.4730915,3.00477777 95.1324802,0.179429785 102.151959,-2.35177099 C103.450806,-2.82013099 104.883411,-2.14688806 105.351771,-0.848040802 C105.820131,0.450806452 105.146888,1.88341099 103.848041,2.35177099 C97.0065282,4.8187977 90.5253234,7.56854837 84.3597917,10.6416639 C76.7003309,14.4616578 69.5371476,18.6991963 62.8420973,23.3988394 C54.2669434,29.4193718 46.7920558,35.9634085 40.3566762,43.1877461 C34.0473053,50.2657476 29.0979657,57.6443518 25.5043634,65.513579 C21.5404463,74.1921708 19.5199058,83.0571956 19.5000616,92.1733636 C19.4949169,95.469364 19.8092768,98.9061041 20.4258655,102.717702 C21.3974785,108.706956 23.1882727,114.245655 25.8570105,119.372339 C30.5021513,128.293963 37.3893824,135.080707 46.5562985,139.774775 Z" id="Path"></path>
                <path d="M140.126423,155.834413 C142.317812,155.694383 143.293288,155.62921 144.503347,155.537812 C144.946621,155.504171 145.340504,155.475004 146.072147,155.421345 C149.2164,155.190769 150.563154,155.08014 152.225646,154.899431 C154.778144,154.622081 157.434587,154.268273 160.691169,153.784856 C161.532751,153.659983 162.217137,153.535845 163.769762,153.237004 C165.008073,152.998666 165.577095,152.892977 166.278912,152.776235 C171.447598,151.916674 176.758808,150.72206 183.366137,148.999182 C188.280016,147.719967 192.895473,146.307184 197.283829,144.720354 C203.338867,142.531619 208.905504,140.133434 214.106148,137.436604 C220.255246,134.249494 225.852999,130.801843 230.970379,127.005757 C237.212099,122.374946 242.554771,117.560168 247.120019,112.35207 C248.030146,111.313786 249.609645,111.209893 250.64793,112.120019 C251.686214,113.030146 251.790107,114.609645 250.879981,115.64793 C246.06718,121.138438 240.463015,126.188872 233.949412,131.021396 C228.608641,134.983195 222.784632,138.570197 216.407428,141.875535 C211.003198,144.677936 205.236546,147.162291 198.983822,149.422484 C194.444661,151.063845 189.683,152.52138 184.626753,153.837658 C177.886925,155.595085 172.438631,156.820532 167.099252,157.70848 C166.452585,157.816048 165.912179,157.916422 164.749687,158.140167 C163.092054,158.45922 162.360791,158.591861 161.425184,158.730685 C158.109499,159.222875 155.392193,159.584789 152.765855,159.870163 C151.025955,160.059285 149.640399,160.173102 146.535513,160.400791 C145.710258,160.461316 145.319551,160.490247 144.880827,160.523543 C143.644239,160.616944 142.655895,160.682978 140.445273,160.824237 C139.66547,160.874066 139.323196,160.89606 138.892909,160.924173 C138.099178,160.933861 137.489054,160.938534 136.524944,160.946276 C131.322221,160.988058 129.437054,160.993911 126.8137,160.958545 C125.61523,160.942647 124.462333,160.887487 122.719422,160.776104 C121.040327,160.667025 120.617397,160.640398 120.091467,160.610721 C117.949412,160.492203 117.287386,160.449607 116.46456,160.374153 C113.82226,160.135634 111.455798,159.904283 109.193462,159.660009 C106.101463,159.3268 103.925902,159.073106 101.750751,158.780981 C100.660336,158.633559 99.8021182,158.487389 97.9099172,158.142708 C97.2188838,158.017074 97.0033089,157.978238 96.7992886,157.941935 C95.3326064,157.682292 94.1437966,157.467797 91.5367994,156.994413 C90.6596892,156.835146 90.2310224,156.757354 89.780762,156.675817 C82.2766572,160.931543 74.0511527,164.250606 64.9577131,166.799452 C59.4577225,168.339864 54.2722659,169.46338 49.1954135,170.170458 C46.9511608,170.48383 45.0698644,170.670374 41.1961517,170.999559 C36.2016668,171.42645 31.1942435,171.543427 24.1683821,171.486083 C19.7970246,171.451393 16.3619944,171.389641 13.033654,171.272372 C10.9703632,171.199488 9.32601606,171.112946 5.64574206,170.897969 C4.10991179,170.808257 3.43192174,170.769337 2.581577,170.723109 C-1.32089392,170.508327 -3.73454116,166.379858 -1.84897462,162.875501 C-0.97037324,161.240889 0.548072548,160.323691 2.41173462,160.070554 C2.64771139,160.03855 2.83573914,160.013402 3.25782962,159.957215 C4.49966438,159.791905 5.04699756,159.715956 5.72178349,159.610847 C11.8289312,158.66399 17.7095081,157.099484 23.3646644,154.908721 C28.9645192,152.741924 34.1996859,150.017546 39.0716788,146.727131 C40.7694001,145.579996 42.4160147,144.364974 44.0125236,143.081826 C42.9406217,142.28252 42.6844779,140.771728 43.4491802,139.660993 C44.2321385,138.523742 45.7887763,138.23653 46.9260281,139.019488 L52.1951709,142.64711 L49.7813138,144.764716 C47.269607,146.968162 44.6337378,149.003296 41.8705578,150.870352 C36.684789,154.372683 31.1159313,157.270713 25.169912,159.571454 C19.1773438,161.892928 12.9479665,163.550232 6.48958637,164.551543 C5.76782831,164.663969 5.19609221,164.743305 3.91759459,164.913495 C3.49957428,164.96914 3.3142594,164.993925 3.08420087,165.025127 C2.70770747,165.076265 2.61428267,165.132697 2.55463145,165.243676 C2.42701442,165.480854 2.56364384,165.714554 2.85467274,165.730573 C3.71230572,165.777197 4.39475506,165.816372 5.93731069,165.906478 C9.57927309,166.119216 11.1980228,166.204412 13.2099378,166.275481 C16.4853539,166.390885 19.8783235,166.45188 24.2086247,166.486245 C31.0924606,166.542429 35.9624913,166.428662 40.7715616,166.01762 C44.5586204,165.695798 46.3770261,165.51549 48.5048263,165.218379 C53.3462001,164.544097 58.3147734,163.467572 63.6087368,161.984864 C72.4513701,159.506317 80.4018702,156.282803 87.6195114,152.152623 C88.549113,151.622104 89.4535864,151.538296 90.4599489,151.71751 C91.0049169,151.816133 91.421293,151.891678 92.4301012,152.074859 C95.0299067,152.546937 96.2138125,152.760547 97.6730407,153.018871 C97.8857407,153.056718 98.1067542,153.096534 98.373431,153.144949 C100.623188,153.554677 101.431015,153.692264 102.418463,153.825766 C104.539276,154.110592 106.6769,154.359863 109.729699,154.688848 C111.960985,154.929768 114.299059,155.158345 116.917607,155.394722 C117.663689,155.463136 118.284736,155.503095 119.661934,155.578985 C120.918335,155.649426 121.350921,155.67666 122.316405,155.739553 C124.703621,155.892707 125.785397,155.944464 126.88056,155.958992 C129.455473,155.993705 131.319704,155.987917 136.484792,155.946437 C137.41453,155.938971 138.016159,155.93435 138.639826,155.930051 C139.040753,155.903897 139.388547,155.881564 140.126423,155.834413 Z" id="Path"></path>
            </g>
            <circle id="Oval" stroke="#A03220" stroke-width="3" cx="179.5" cy="79.5" r="9.5"></circle>
            <circle id="Oval" stroke="#A03220" stroke-width="3" cx="139.5" cy="79.5" r="9.5"></circle>
            <circle id="Oval" stroke="#A03220" stroke-width="3" cx="99.5" cy="79.5" r="9.5"></circle>
        </g>
    </g>
</svg>